<svg width="842" height="842" viewBox="0 0 842 842" fill="none" xmlns="http://www.w3.org/2000/svg">
<path d="M386.46 686.401L187.8 592.911C185.586 591.868 183.714 590.218 182.404 588.151C181.094 586.084 180.398 583.688 180.4 581.241V193.101C180.399 191.006 180.927 188.944 181.936 187.108C182.945 185.272 184.401 183.721 186.17 182.599C187.939 181.476 189.963 180.819 192.054 180.688C194.145 180.558 196.235 180.957 198.13 181.851L396.79 275.341C399.004 276.381 400.877 278.029 402.189 280.094C403.501 282.159 404.199 284.554 404.2 287.001V675.151C404.199 677.246 403.669 679.307 402.659 681.143C401.649 682.979 400.192 684.53 398.422 685.652C396.653 686.774 394.628 687.431 392.537 687.562C390.446 687.693 388.356 687.293 386.46 686.401Z" fill="#81EDB9"/>
<path d="M643.76 619.31L445.1 525.82C442.885 524.779 441.012 523.128 439.7 521.062C438.388 518.995 437.691 516.598 437.69 514.15V321.15C437.685 306.236 440.661 291.471 446.443 277.724C452.225 263.976 460.697 251.523 471.36 241.096C482.024 230.669 494.664 222.479 508.538 217.007C522.412 211.534 537.24 208.89 552.15 209.23C581.377 209.899 609.181 221.979 629.615 242.886C650.049 263.793 661.49 291.866 661.49 321.1V608.1C661.484 610.192 660.951 612.248 659.939 614.079C658.928 615.909 657.471 617.455 655.703 618.573C653.935 619.691 651.913 620.344 649.826 620.473C647.738 620.602 645.652 620.202 643.76 619.31Z" fill="#81EDB9"/>
<path d="M653.146 657.791L598.167 602.812C603.604 588.916 600.583 572.604 589.104 561.125C577.021 549.041 558.896 546.625 544.396 553.27L570.375 579.25L552.25 597.375L525.667 571.395C518.417 585.895 521.437 604.02 533.521 616.104C545 627.583 561.312 630.604 575.208 625.166L630.187 680.145C632.604 682.562 636.229 682.562 638.646 680.145L652.542 666.25C655.562 663.833 655.562 659.604 653.146 657.791Z" fill="#AEAEB2"/>
</svg>
