<svg width="842" height="842" viewBox="0 0 842 842" fill="none" xmlns="http://www.w3.org/2000/svg">
<path d="M373.329 767.379L100.175 638.831C97.1307 637.398 94.5574 635.129 92.7556 632.287C90.9538 629.446 89.998 626.15 90 622.785V89.1001C89.9985 86.2195 90.725 83.3853 92.1122 80.8608C93.4993 78.3362 95.502 76.2032 97.9342 74.6599C100.366 73.1167 103.149 72.2131 106.024 72.0333C108.899 71.8535 111.773 72.4033 114.378 73.6315L387.532 202.179C390.577 203.609 393.152 205.876 394.956 208.714C396.76 211.553 397.719 214.847 397.721 218.211V751.91C397.72 754.791 396.991 757.625 395.602 760.149C394.213 762.673 392.21 764.806 389.777 766.349C387.344 767.892 384.56 768.795 381.685 768.975C378.809 769.155 375.935 768.606 373.329 767.379Z" fill="#81EDB9"/>
<path d="M727.111 675.131L453.958 546.584C450.912 545.151 448.337 542.882 446.533 540.041C444.728 537.199 443.77 533.903 443.769 530.538V265.166C443.762 244.66 447.854 224.358 455.804 205.456C463.755 186.553 475.403 169.43 490.065 155.093C504.727 140.756 522.107 129.495 541.184 121.971C560.26 114.446 580.648 110.811 601.149 111.278C641.336 112.198 679.566 128.808 707.662 157.554C735.759 186.3 751.49 224.901 751.49 265.097V659.717C751.482 662.593 750.749 665.42 749.358 667.938C747.967 670.455 745.963 672.58 743.532 674.117C741.102 675.654 738.322 676.553 735.452 676.73C732.582 676.907 729.713 676.357 727.111 675.131Z" fill="#81EDB9"/>
<path d="M734.208 705.698L617.947 589.437C629.445 560.053 623.058 525.558 598.783 501.284C573.232 475.732 534.904 470.622 504.242 484.675L559.178 539.612L520.851 577.939L464.637 523.003C449.306 553.665 455.694 591.993 481.245 617.544C505.52 641.819 540.014 648.207 569.399 636.708L685.659 752.969C690.77 758.079 698.435 758.079 703.545 752.969L732.93 723.584C739.318 718.474 739.318 709.531 734.208 705.698Z" fill="#AEAEB2"/>
</svg>
